<svg width="417" height="51" viewBox="0 0 417 51" fill="none" xmlns="http://www.w3.org/2000/svg">
<path d="M72.662 26.8257H81.7895C81.6678 29.4597 80.9549 31.7819 79.651 33.792C78.3471 35.8022 76.539 37.3705 74.2267 38.4969C71.9319 39.606 69.2197 40.1605 66.0903 40.1605C63.552 40.1605 61.2832 39.736 59.2839 38.8868C57.3019 38.0377 55.6155 36.816 54.2247 35.2217C52.8512 33.6274 51.7994 31.6952 51.0692 29.4251C50.3564 27.1549 50 24.5989 50 21.7569V19.7034C50 16.8614 50.3738 14.3053 51.1214 12.0352C51.8863 9.74771 52.9642 7.80683 54.3551 6.21254C55.7633 4.60092 57.4497 3.37054 59.4143 2.52141C61.3788 1.67227 63.5607 1.24771 65.9599 1.24771C69.2632 1.24771 72.0536 1.8369 74.3311 3.01529C76.6086 4.19368 78.3732 5.81397 79.625 7.87615C80.8767 9.921 81.6156 12.2518 81.8416 14.8685H72.7142C72.6794 13.4475 72.436 12.2604 71.984 11.3073C71.532 10.3369 70.8192 9.60907 69.8456 9.12385C68.872 8.63863 67.5768 8.39602 65.9599 8.39602C64.8299 8.39602 63.8476 8.60398 63.0131 9.01988C62.1786 9.43578 61.4831 10.0943 60.9268 10.9954C60.3705 11.8965 59.9532 13.0663 59.6751 14.5046C59.4143 15.9256 59.2839 17.6412 59.2839 19.6514V21.7569C59.2839 23.7671 59.4056 25.4827 59.649 26.9037C59.8924 28.3247 60.2835 29.4857 60.8225 30.3868C61.3614 31.288 62.0569 31.9551 62.9088 32.3884C63.778 32.8043 64.8386 33.0122 66.0903 33.0122C67.4812 33.0122 68.6547 32.7956 69.6109 32.3624C70.5671 31.9118 71.306 31.236 71.8275 30.3349C72.3491 29.4164 72.6273 28.2467 72.662 26.8257Z" fill="#00252E"/>
<path d="M84.6059 25.8639V25.318C84.6059 23.2559 84.9015 21.3583 85.4926 19.6254C86.0837 17.8751 86.953 16.3588 88.1004 15.0765C89.2478 13.7941 90.6648 12.7977 92.3512 12.0872C94.0376 11.3593 95.9847 10.9954 98.1927 10.9954C100.418 10.9954 102.374 11.3593 104.06 12.0872C105.764 12.7977 107.19 13.7941 108.337 15.0765C109.485 16.3588 110.354 17.8751 110.945 19.6254C111.536 21.3583 111.832 23.2559 111.832 25.318V25.8639C111.832 27.9088 111.536 29.8063 110.945 31.5566C110.354 33.2895 109.485 34.8058 108.337 36.1055C107.19 37.3879 105.773 38.3843 104.086 39.0948C102.4 39.8053 100.453 40.1605 98.2449 40.1605C96.0369 40.1605 94.081 39.8053 92.3772 39.0948C90.6735 38.3843 89.2478 37.3879 88.1004 36.1055C86.953 34.8058 86.0837 33.2895 85.4926 31.5566C84.9015 29.8063 84.6059 27.9088 84.6059 25.8639ZM93.3943 25.318V25.8639C93.3943 26.921 93.4725 27.9088 93.629 28.8272C93.7855 29.7457 94.0463 30.5515 94.4114 31.2446C94.7765 31.9205 95.2719 32.449 95.8978 32.8303C96.5237 33.2115 97.306 33.4021 98.2449 33.4021C99.1663 33.4021 99.9313 33.2115 100.54 32.8303C101.166 32.449 101.661 31.9205 102.026 31.2446C102.391 30.5515 102.652 29.7457 102.809 28.8272C102.965 27.9088 103.043 26.921 103.043 25.8639V25.318C103.043 24.2956 102.965 23.3338 102.809 22.4327C102.652 21.5143 102.391 20.7085 102.026 20.0153C101.661 19.3048 101.166 18.7503 100.54 18.3517C99.9139 17.9531 99.1315 17.7538 98.1927 17.7538C97.2713 17.7538 96.4976 17.9531 95.8717 18.3517C95.2632 18.7503 94.7765 19.3048 94.4114 20.0153C94.0463 20.7085 93.7855 21.5143 93.629 22.4327C93.4725 23.3338 93.3943 24.2956 93.3943 25.318Z" fill="#00252E"/>
<path d="M124.61 17.4679V39.6407H115.822V11.5153H124.062L124.61 17.4679ZM123.541 24.6162L121.533 24.6682C121.533 22.6927 121.767 20.8731 122.237 19.2095C122.706 17.5459 123.402 16.0989 124.323 14.8685C125.245 13.6381 126.375 12.685 127.713 12.0092C129.069 11.3333 130.634 10.9954 132.407 10.9954C133.642 10.9954 134.763 11.186 135.772 11.5673C136.78 11.9312 137.649 12.5117 138.379 13.3089C139.11 14.0887 139.666 15.1111 140.048 16.3761C140.448 17.6239 140.648 19.1228 140.648 20.8731V39.6407H131.86V21.9908C131.86 20.7951 131.721 19.894 131.443 19.2875C131.182 18.6809 130.799 18.2737 130.295 18.0657C129.791 17.8578 129.174 17.7538 128.444 17.7538C127.679 17.7538 126.992 17.9271 126.383 18.2737C125.775 18.6203 125.253 19.1055 124.819 19.7294C124.401 20.3359 124.08 21.055 123.854 21.8868C123.645 22.7187 123.541 23.6284 123.541 24.6162ZM139.657 24.6162L137.206 24.6682C137.206 22.6927 137.423 20.8731 137.858 19.2095C138.31 17.5459 138.979 16.0989 139.866 14.8685C140.77 13.6381 141.891 12.685 143.23 12.0092C144.569 11.3333 146.125 10.9954 147.898 10.9954C149.184 10.9954 150.367 11.186 151.445 11.5673C152.523 11.9485 153.453 12.5637 154.235 13.4128C155.017 14.262 155.626 15.3884 156.06 16.792C156.495 18.1784 156.712 19.894 156.712 21.9388V39.6407H147.898V21.9388C147.898 20.7778 147.759 19.9026 147.481 19.3135C147.22 18.7069 146.837 18.2997 146.333 18.0917C145.829 17.8665 145.229 17.7538 144.534 17.7538C143.699 17.7538 142.978 17.9271 142.369 18.2737C141.761 18.6203 141.248 19.1055 140.831 19.7294C140.431 20.3359 140.135 21.055 139.944 21.8868C139.753 22.7187 139.657 23.6284 139.657 24.6162Z" fill="#00252E"/>
<path d="M170.612 17.4679V39.6407H161.824V11.5153H170.065L170.612 17.4679ZM169.543 24.6162L167.535 24.6682C167.535 22.6927 167.77 20.8731 168.239 19.2095C168.708 17.5459 169.404 16.0989 170.325 14.8685C171.247 13.6381 172.377 12.685 173.715 12.0092C175.072 11.3333 176.636 10.9954 178.41 10.9954C179.644 10.9954 180.765 11.186 181.774 11.5673C182.782 11.9312 183.651 12.5117 184.382 13.3089C185.112 14.0887 185.668 15.1111 186.051 16.3761C186.45 17.6239 186.65 19.1228 186.65 20.8731V39.6407H177.862V21.9908C177.862 20.7951 177.723 19.894 177.445 19.2875C177.184 18.6809 176.801 18.2737 176.297 18.0657C175.793 17.8578 175.176 17.7538 174.446 17.7538C173.681 17.7538 172.994 17.9271 172.385 18.2737C171.777 18.6203 171.255 19.1055 170.821 19.7294C170.404 20.3359 170.082 21.055 169.856 21.8868C169.647 22.7187 169.543 23.6284 169.543 24.6162ZM185.659 24.6162L183.208 24.6682C183.208 22.6927 183.425 20.8731 183.86 19.2095C184.312 17.5459 184.981 16.0989 185.868 14.8685C186.772 13.6381 187.893 12.685 189.232 12.0092C190.571 11.3333 192.127 10.9954 193.9 10.9954C195.187 10.9954 196.369 11.186 197.447 11.5673C198.525 11.9485 199.455 12.5637 200.237 13.4128C201.019 14.262 201.628 15.3884 202.063 16.792C202.497 18.1784 202.715 19.894 202.715 21.9388V39.6407H193.9V21.9388C193.9 20.7778 193.761 19.9026 193.483 19.3135C193.222 18.7069 192.84 18.2997 192.335 18.0917C191.831 17.8665 191.231 17.7538 190.536 17.7538C189.701 17.7538 188.98 17.9271 188.371 18.2737C187.763 18.6203 187.25 19.1055 186.833 19.7294C186.433 20.3359 186.137 21.055 185.946 21.8868C185.755 22.7187 185.659 23.6284 185.659 24.6162Z" fill="#00252E"/>
<path d="M224.229 32.8043V11.5153H233.044V39.6407H224.803L224.229 32.8043ZM225.064 27.0856L227.359 27.0336C227.359 28.9225 227.133 30.6728 226.681 32.2844C226.228 33.8787 225.559 35.265 224.672 36.4434C223.803 37.6218 222.725 38.5403 221.439 39.1988C220.17 39.84 218.701 40.1605 217.032 40.1605C215.641 40.1605 214.363 39.9699 213.198 39.5887C212.051 39.1901 211.06 38.5749 210.225 37.7431C209.391 36.894 208.739 35.8109 208.269 34.4939C207.817 33.1595 207.591 31.5652 207.591 29.711V11.5153H216.38V29.763C216.38 30.3868 216.458 30.9241 216.614 31.3746C216.771 31.8252 216.997 32.2064 217.292 32.5183C217.588 32.8129 217.953 33.0382 218.388 33.1942C218.84 33.3328 219.353 33.4021 219.926 33.4021C221.248 33.4021 222.282 33.1249 223.03 32.5703C223.777 32.0158 224.299 31.262 224.594 30.3089C224.907 29.3558 225.064 28.2813 225.064 27.0856Z" fill="#00252E"/>
<path d="M246.526 17.5199V39.6407H237.738V11.5153H245.978L246.526 17.5199ZM245.483 24.6162L243.423 24.6682C243.423 22.5194 243.684 20.6045 244.205 18.9235C244.727 17.2253 245.466 15.787 246.422 14.6086C247.378 13.4302 248.517 12.5377 249.838 11.9312C251.177 11.3073 252.663 10.9954 254.297 10.9954C255.601 10.9954 256.792 11.186 257.87 11.5673C258.965 11.9485 259.904 12.5637 260.687 13.4128C261.486 14.262 262.095 15.3884 262.512 16.792C262.947 18.1784 263.164 19.894 263.164 21.9388V39.6407H254.324V21.9128C254.324 20.7864 254.167 19.9286 253.854 19.3394C253.541 18.7329 253.089 18.317 252.498 18.0917C251.907 17.8665 251.185 17.7538 250.334 17.7538C249.429 17.7538 248.665 17.9271 248.039 18.2737C247.413 18.6203 246.909 19.1055 246.526 19.7294C246.161 20.3359 245.892 21.055 245.718 21.8868C245.561 22.7187 245.483 23.6284 245.483 24.6162Z" fill="#00252E"/>
<path d="M277.325 11.5153V39.6407H268.51V11.5153H277.325ZM267.989 4.263C267.989 3.01529 268.441 1.99286 269.345 1.19572C270.249 0.398573 271.422 0 272.865 0C274.308 0 275.482 0.398573 276.386 1.19572C277.29 1.99286 277.742 3.01529 277.742 4.263C277.742 5.5107 277.29 6.53313 276.386 7.33027C275.482 8.12742 274.308 8.52599 272.865 8.52599C271.422 8.52599 270.249 8.12742 269.345 7.33027C268.441 6.53313 267.989 5.5107 267.989 4.263Z" fill="#00252E"/>
<path d="M297.614 11.5153V17.5979H280.61V11.5153H297.614ZM284.183 4.52294H292.972V30.4648C292.972 31.21 293.058 31.7905 293.232 32.2064C293.406 32.605 293.702 32.8909 294.119 33.0642C294.554 33.2202 295.127 33.2982 295.84 33.2982C296.344 33.2982 296.762 33.2895 297.092 33.2722C297.422 33.2375 297.735 33.1942 298.031 33.1422V39.4067C297.283 39.6493 296.501 39.8313 295.684 39.9526C294.867 40.0912 293.997 40.1605 293.076 40.1605C291.198 40.1605 289.59 39.866 288.251 39.2768C286.93 38.6876 285.922 37.7604 285.226 36.4954C284.531 35.2304 284.183 33.5841 284.183 31.5566V4.52294Z" fill="#00252E"/>
<path d="M309.766 36.3394L317.068 11.5153H326.508L315.164 43.8257C314.921 44.5362 314.599 45.2987 314.199 46.1131C313.799 46.945 313.252 47.7334 312.556 48.4786C311.861 49.2237 310.966 49.8303 309.87 50.2982C308.792 50.7661 307.454 51 305.854 51C305.002 51 304.376 50.9567 303.977 50.87C303.594 50.8007 303.003 50.6707 302.203 50.4801V44.2156C302.429 44.2156 302.621 44.2156 302.777 44.2156C302.951 44.2156 303.142 44.2156 303.351 44.2156C304.29 44.2156 305.037 44.1203 305.593 43.9297C306.167 43.739 306.602 43.4618 306.897 43.0979C307.21 42.7339 307.454 42.292 307.628 41.7722L309.766 36.3394ZM307.914 11.5153L313.469 31.1927L314.434 40.4725H308.54L298.5 11.5153H307.914Z" fill="#00252E"/>
<path d="M336.679 17.052H340.956C342.051 17.052 342.946 16.8614 343.642 16.4801C344.355 16.0815 344.885 15.527 345.232 14.8165C345.58 14.0887 345.754 13.2309 345.754 12.2431C345.754 11.4806 345.589 10.7788 345.259 10.1376C344.946 9.49643 344.459 8.98522 343.798 8.60398C343.138 8.2054 342.294 8.00612 341.269 8.00612C340.573 8.00612 339.895 8.15341 339.234 8.44801C338.574 8.72528 338.026 9.12385 337.592 9.64373C337.174 10.1636 336.966 10.7961 336.966 11.5413H328.151C328.151 9.39246 328.742 7.55556 329.925 6.03058C331.124 4.48828 332.698 3.30989 334.645 2.49541C336.609 1.66361 338.722 1.24771 340.982 1.24771C343.676 1.24771 346.041 1.66361 348.075 2.49541C350.109 3.30989 351.691 4.52294 352.821 6.13456C353.969 7.72885 354.542 9.70438 354.542 12.0612C354.542 13.3609 354.238 14.5826 353.63 15.7263C353.021 16.87 352.169 17.8751 351.074 18.7416C349.979 19.6081 348.692 20.2926 347.214 20.7951C345.754 21.2803 344.155 21.5229 342.416 21.5229H336.679V17.052ZM336.679 23.5765V19.2095H342.416C344.311 19.2095 346.041 19.4261 347.606 19.8593C349.17 20.2752 350.518 20.8991 351.648 21.7309C352.778 22.5627 353.647 23.5938 354.256 24.8242C354.864 26.0372 355.168 27.4322 355.168 29.0092C355.168 30.7768 354.812 32.3537 354.099 33.7401C353.386 35.1264 352.387 36.2961 351.1 37.2492C349.814 38.2023 348.31 38.9302 346.589 39.4327C344.867 39.9179 342.998 40.1605 340.982 40.1605C339.4 40.1605 337.818 39.9526 336.235 39.5367C334.653 39.1035 333.21 38.445 331.906 37.5612C330.603 36.66 329.551 35.5163 328.751 34.13C327.969 32.7263 327.577 31.054 327.577 29.1131H336.392C336.392 29.9103 336.609 30.6381 337.044 31.2966C337.496 31.9378 338.096 32.449 338.843 32.8303C339.591 33.2115 340.399 33.4021 341.269 33.4021C342.346 33.4021 343.259 33.2029 344.007 32.8043C344.772 32.3884 345.354 31.8338 345.754 31.1407C346.154 30.4475 346.354 29.6763 346.354 28.8272C346.354 27.5449 346.137 26.5224 345.702 25.7599C345.285 24.9975 344.667 24.4429 343.85 24.0963C343.051 23.7497 342.086 23.5765 340.956 23.5765H336.679Z" fill="#00252E"/>
<path d="M379.447 1.24771H380.855V8.13609H380.386C378.7 8.13609 377.118 8.37003 375.64 8.83792C374.179 9.30581 372.893 10.0163 371.78 10.9694C370.685 11.9052 369.824 13.0923 369.198 14.5306C368.59 15.9689 368.286 17.6585 368.286 19.5994V26.2278C368.286 27.4409 368.39 28.498 368.599 29.3991C368.807 30.3002 369.12 31.0454 369.537 31.6346C369.955 32.2237 370.468 32.6656 371.076 32.9602C371.702 33.2548 372.423 33.4021 373.241 33.4021C373.919 33.4021 374.545 33.2462 375.118 32.9342C375.692 32.6223 376.187 32.1804 376.605 31.6086C377.039 31.0367 377.37 30.3695 377.596 29.607C377.822 28.8445 377.935 28.0127 377.935 27.1116C377.935 26.1412 377.813 25.2661 377.57 24.4862C377.326 23.7064 376.978 23.0479 376.526 22.5107C376.092 21.9562 375.562 21.5403 374.936 21.263C374.327 20.9684 373.658 20.8211 372.928 20.8211C371.815 20.8211 370.867 21.0724 370.085 21.5749C369.32 22.0601 368.738 22.684 368.338 23.4465C367.955 24.209 367.764 24.9801 367.764 25.7599L365.652 23.6284C365.617 22.5887 365.817 21.5143 366.252 20.4052C366.686 19.2961 367.338 18.265 368.207 17.3119C369.077 16.3588 370.163 15.5877 371.467 14.9985C372.771 14.4093 374.284 14.1147 376.005 14.1147C377.743 14.1147 379.273 14.4439 380.595 15.1024C381.933 15.761 383.055 16.6794 383.959 17.8578C384.88 19.0362 385.576 20.4139 386.045 21.9908C386.514 23.5678 386.749 25.2747 386.749 27.1116C386.749 28.9658 386.419 30.6901 385.758 32.2844C385.115 33.8614 384.202 35.239 383.02 36.4174C381.838 37.5958 380.438 38.5143 378.821 39.1728C377.204 39.8313 375.422 40.1605 373.475 40.1605C371.476 40.1605 369.624 39.8226 367.921 39.1468C366.234 38.4536 364.756 37.4572 363.487 36.1575C362.236 34.8405 361.253 33.2375 360.54 31.3486C359.845 29.4597 359.497 27.3196 359.497 24.9281V21.7309C359.497 18.4903 360.028 15.605 361.088 13.0749C362.166 10.5449 363.626 8.40469 365.469 6.65443C367.33 4.88685 369.459 3.54383 371.858 2.62538C374.258 1.70693 376.787 1.24771 379.447 1.24771Z" fill="#00252E"/>
<path d="M417 17.2599V24.1743C417 26.895 416.678 29.2604 416.035 31.2706C415.409 33.2808 414.505 34.9444 413.323 36.2615C412.158 37.5785 410.767 38.5576 409.15 39.1988C407.534 39.84 405.752 40.1605 403.804 40.1605C402.24 40.1605 400.779 39.9613 399.423 39.5627C398.067 39.1468 396.841 38.5229 395.746 37.6911C394.668 36.842 393.738 35.7849 392.956 34.5199C392.173 33.2548 391.574 31.7645 391.156 30.0489C390.739 28.316 390.531 26.3578 390.531 24.1743V17.2599C390.531 14.5219 390.843 12.1565 391.469 10.1636C392.113 8.15341 393.025 6.48981 394.208 5.17278C395.39 3.85576 396.789 2.87666 398.406 2.23547C400.023 1.59429 401.805 1.2737 403.752 1.2737C405.317 1.2737 406.769 1.48165 408.107 1.89755C409.463 2.29613 410.689 2.91998 411.784 3.76911C412.88 4.60092 413.81 5.64934 414.575 6.91437C415.357 8.17941 415.957 9.67839 416.374 11.4113C416.791 13.1269 417 15.0765 417 17.2599ZM408.212 25.2401V16.1422C408.212 14.9292 408.142 13.8721 408.003 12.9709C407.881 12.0698 407.69 11.3073 407.429 10.6835C407.186 10.0596 406.882 9.55708 406.517 9.17584C406.151 8.77727 405.734 8.49134 405.265 8.31804C404.813 8.12742 404.309 8.03211 403.752 8.03211C403.057 8.03211 402.431 8.17941 401.875 8.47401C401.336 8.75127 400.875 9.20183 400.492 9.82569C400.11 10.4495 399.814 11.2813 399.606 12.3211C399.415 13.3609 399.319 14.6346 399.319 16.1422V25.2401C399.319 26.4704 399.38 27.5449 399.501 28.4633C399.641 29.3644 399.832 30.1356 400.075 30.7768C400.336 31.4006 400.649 31.9118 401.014 32.3104C401.379 32.6916 401.796 32.9689 402.266 33.1422C402.735 33.3155 403.248 33.4021 403.804 33.4021C404.482 33.4021 405.091 33.2635 405.63 32.9862C406.169 32.709 406.63 32.2584 407.012 31.6346C407.412 30.9934 407.707 30.1529 407.899 29.1131C408.107 28.0561 408.212 26.765 408.212 25.2401Z" fill="#00252E"/>
<path d="M19.5415 3.43478C16.0036 3.43478 12.4442 4.40775 9.28991 6.4265L12.4337 6.93694L11.5256 9.74658C13.8471 8.28426 16.5954 7.43779 19.5415 7.43779C27.8574 7.43779 34.5988 14.1792 34.5988 22.4951C34.5988 30.8112 27.8574 37.553 19.5415 37.553C11.3534 37.553 4.66305 31.008 4.48673 22.8161C4.43115 19.1085 5.63378 15.7993 7.73463 13.1488L8.87977 14.2939L9.20781 8.80524L3.71915 9.13584L4.88952 10.3056C1.80197 14.0102 0.361372 18.6316 0.485947 22.8161C0.648214 33.1501 9.08579 41.555 19.5415 41.555C30.0671 41.555 38.6015 33.0213 38.6015 22.4951C38.6015 11.9691 30.0671 3.43478 19.5415 3.43478Z" fill="#75C2ED"/>
<path d="M13.0975 6.00997C13.0224 5.80522 13.1278 5.57812 13.3326 5.50369C13.5399 5.42767 13.7504 5.35548 13.959 5.28744C14.1663 5.22036 14.3889 5.3344 14.4563 5.54106C14.5234 5.74901 14.41 5.97196 14.2027 6.03904C14.0034 6.10389 13.8015 6.17288 13.6034 6.24507C13.4 6.31981 13.1722 6.21568 13.0975 6.00997ZM19.5415 40.5808C9.56882 40.5808 1.45613 32.4677 1.45613 22.4951C1.45613 18.3253 2.90918 14.2555 5.54793 11.0367C5.68624 10.8684 5.93475 10.8438 6.10373 10.9818C6.27238 11.1201 6.29698 11.3686 6.15867 11.5379C3.63523 14.6155 2.24574 18.5074 2.24574 22.4951C2.24574 32.0321 10.0045 39.7908 19.5415 39.7908C29.0785 39.7908 36.8373 32.0321 36.8373 22.4951C36.8373 12.9581 29.0785 5.19928 19.5415 5.19928C18.2415 5.19928 16.9459 5.34366 15.6909 5.62954C15.4781 5.67682 15.2664 5.5449 15.2181 5.33216C15.1702 5.11911 15.3028 4.90765 15.5155 4.85941C16.8287 4.56075 18.183 4.40967 19.5415 4.40967C29.5136 4.40967 37.6272 12.5227 37.6272 22.4951C37.6272 32.4677 29.5136 40.5808 19.5415 40.5808Z" fill="#C5E5FE"/>
<path d="M9.50374 6.75965C12.4967 4.84216 15.9686 3.82959 19.5416 3.82959C29.8574 3.82959 38.2065 12.1783 38.2065 22.495C38.2065 32.8108 29.8581 41.1602 19.5416 41.1602C17.9586 41.1602 16.3889 40.9624 14.8723 40.5715C14.6624 40.5178 14.4439 40.6484 14.3903 40.8551C14.3366 41.0736 14.4669 41.2828 14.6749 41.3371C16.256 41.7431 17.8924 41.9498 19.5416 41.9498C30.2861 41.9498 38.9965 33.2426 38.9965 22.495C38.9965 11.7452 30.28 3.03998 19.5416 3.03998C15.8168 3.03998 12.1981 4.09663 9.07731 6.09334C8.89332 6.21184 8.8403 6.45684 8.95689 6.64019C9.0706 6.81651 9.32518 6.874 9.50374 6.75965Z" fill="black"/>
<path d="M13.1331 40.87C13.3184 40.9409 13.5596 40.8435 13.6356 40.6282C13.7065 40.4212 13.6011 40.1966 13.3925 40.1238C13.19 40.0542 12.9594 40.1666 12.8894 40.3669C12.8172 40.5726 12.9258 40.7984 13.1315 40.87C13.1331 40.87 13.1331 40.87 13.1331 40.87Z" fill="black"/>
<path d="M11.6342 40.2775C11.8443 40.3666 12.0714 40.2682 12.1574 40.0766C12.2455 39.8779 12.1555 39.6441 11.9561 39.5556C5.47759 36.6687 0.87279 30.1576 0.87279 22.3148C0.87279 18.1371 2.44627 13.852 5.19267 10.5585C5.32203 10.4035 5.31085 10.1697 5.16903 10.026L4.6193 9.47627L8.78778 9.2252L8.53799 13.3937L8.01413 12.8692C7.83813 12.6976 7.56662 12.7235 7.4248 12.9043C5.24186 15.6542 4.08874 18.9979 4.09066 22.571C4.09066 30.9584 10.9634 37.948 19.5415 37.948C28.0995 37.948 34.9939 31.0092 34.9939 22.495C34.9939 13.9472 28.0653 7.04291 19.5415 7.04291C16.6207 7.04291 13.7762 7.86223 11.3151 9.41206C11.1343 9.52642 11.072 9.76758 11.1905 9.957C11.3039 10.1352 11.5569 10.194 11.7351 10.0816C11.7364 10.0797 11.7364 10.0797 11.7364 10.0797C14.071 8.60935 16.7705 7.83252 19.5415 7.83252C27.644 7.83252 34.204 14.3919 34.204 22.495C34.204 30.5974 27.6459 37.158 19.5415 37.158C11.4562 37.158 4.88027 30.4543 4.88027 22.571C4.88027 19.3359 5.88166 16.2844 7.77393 13.746L8.59964 14.5739C8.83761 14.8116 9.25349 14.6592 9.27458 14.3181L9.60294 8.82912C9.61572 8.59722 9.42503 8.39662 9.1845 8.41003L3.69553 8.74223C3.36237 8.75884 3.19595 9.1677 3.43967 9.41526L4.35706 10.3326C1.59053 13.7824 0.0831757 18.1071 0.0831757 22.3148C0.0831757 30.5179 4.87356 37.266 11.6342 40.2775Z" fill="black"/>
</svg>
